<svg id="Layer_1" data-name="Layer 1" xmlns="http://www.w3.org/2000/svg" viewBox="0 0 122.88 122.88">
  <defs>
    <style>.cls-1{fill:#fff;}.cls-2{fill-rule:evenodd;}.cls-3{fill:#d92d27;}</style>
  </defs>
  <title>no-music</title>
  <path class="cls-1" d="M21.2,32.93,90,101.68A49.42,49.42,0,0,1,42.58,107,49.25,49.25,0,0,1,12.13,61.44h0A49.12,49.12,0,0,1,21.2,32.93ZM98.92,93.5,29.38,24A49.32,49.32,0,0,1,98.92,93.5Z"/>
  <path class="cls-1" d="M24,29.38,93.49,98.92A49.31,49.31,0,0,1,24,29.38ZM101.68,90,32.92,21.2A49.24,49.24,0,0,1,96.3,26.57a49,49,0,0,1,14.45,34.87h0A49.12,49.12,0,0,1,101.68,90Z"/>
  <path class="cls-2" d="M80.81,70.43a10.29,10.29,0,0,1,4.12.07V41.61L54.36,50.39V83.93a5.25,5.25,0,0,1,0,.56h0c0,4.52-4.74,9-10.59,10s-10.58-1.84-10.58-6.36,4.74-9,10.58-10a11.83,11.83,0,0,1,5.94.39V37.23H50l39.55-9.06V74.69a5.17,5.17,0,0,1,.11,1h0c0,3.78-4,7.52-8.84,8.36S72,82.56,72,78.79s4-7.52,8.83-8.36Z"/>
  <path class="cls-3" d="M61.44,122.88A61.31,61.31,0,1,0,38,118.22a61.29,61.29,0,0,0,23.49,4.66ZM101.68,90,32.93,21.2a49.44,49.44,0,0,1,47.38-5.34A49.53,49.53,0,0,1,107,42.58a49,49,0,0,1,3.73,18.86h0A48.93,48.93,0,0,1,101.68,90ZM24,29.38,93.5,98.92A49.32,49.32,0,0,1,24,29.38Z"/>
</svg>
